<?xml version="1.0" standalone="no"?>
<!DOCTYPE svg PUBLIC "-//W3C//DTD SVG 20010904//EN"
 "http://www.w3.org/TR/2001/REC-SVG-20010904/DTD/svg10.dtd">
<svg version="1.0" xmlns="http://www.w3.org/2000/svg"
 width="672.000000pt" height="672.000000pt" viewBox="0 0 672.000000 672.000000"
 preserveAspectRatio="xMidYMid meet">
<metadata>
Created by potrace 1.14, written by Peter Selinger 2001-2017
</metadata>
<g transform="translate(0.000000,672.000000) scale(0.100000,-0.100000)"
fill="#000000" stroke="none">
<path d="M480 6616 c-62 -16 -229 -118 -296 -179 -87 -80 -123 -169 -164 -412
-20 -118 -20 -160 -20 -2720 l0 -2600 26 -55 c33 -72 106 -167 159 -207 61
-48 235 -114 325 -124 75 -8 324 -16 1335 -44 1198 -32 1628 -39 2620 -39
1173 -1 1483 10 1702 60 72 16 203 95 285 171 91 86 120 177 157 494 21 173
21 217 21 2495 0 2262 0 2323 -20 2479 -34 274 -58 360 -120 448 -62 86 -247
215 -340 236 -70 16 -5611 13 -5670 -3z m5062 -759 c58 -23 136 -90 154 -134
17 -40 18 -113 2 -147 -17 -39 -47 -53 -140 -70 -95 -16 -137 -32 -187 -70
-41 -31 -97 -107 -113 -155 -10 -28 -14 -462 -18 -1911 l-5 -1875 -22 -40
c-24 -46 -65 -86 -108 -108 -51 -26 -179 -38 -335 -32 -327 13 -363 33 -558
308 -53 75 -165 232 -249 349 -84 117 -395 555 -691 973 -573 809 -580 817
-681 846 -153 44 -319 -28 -388 -169 l-28 -57 0 -835 c0 -782 1 -838 18 -875
51 -113 126 -173 256 -206 102 -25 134 -40 184 -87 112 -108 37 -231 -176
-290 -56 -15 -127 -17 -712 -17 l-650 0 -42 22 c-54 29 -73 58 -73 109 0 49
45 123 93 153 18 10 65 26 106 35 134 30 217 91 265 195 l21 46 3 1608 c1
1036 -1 1622 -8 1646 -15 55 -64 127 -111 161 -23 16 -74 39 -112 51 -165 49
-230 142 -197 281 18 74 42 118 88 160 72 65 49 63 782 63 764 0 729 4 825
-89 40 -38 206 -284 664 -986 336 -514 628 -954 649 -977 59 -62 112 -86 207
-91 65 -3 91 0 136 17 75 29 141 88 176 159 l28 57 3 674 c3 755 4 738 -67
829 -46 58 -114 95 -210 113 -117 22 -201 105 -187 184 15 76 123 172 220 194
24 5 276 8 591 7 504 -1 554 -3 597 -19z"/>
</g>
</svg>
